<?xml version="1.0" encoding="UTF-8"?>
<svg width="284px" height="58px" viewBox="0 0 284 58" version="1.1" xmlns="http://www.w3.org/2000/svg" xmlns:xlink="http://www.w3.org/1999/xlink">
    <!-- Generator: Sketch 42 (36781) - http://www.bohemiancoding.com/sketch -->
    <title>Group</title>
    <desc>Created with Sketch.</desc>
    <defs></defs>
    <g id="home" stroke="none" stroke-width="1" fill="none" fill-rule="evenodd">
        <g id="boen-design-desktop" transform="translate(-203.000000, -21.000000)">
            <g id="Group" transform="translate(203.000000, 21.000000)">
                <g id="Group-4">
                    <path d="M192.860816,33.4190476 L178.054214,33.4190476 L178.054214,37.263619 L183.546718,37.263619 L183.546718,56.6190476 L187.715728,56.6190476 L187.715728,37.263619 L193.208233,37.263619 L193.208233,36.5644322 L197.675029,56.7847619 L200.752155,56.7847619 L203.994718,44.0247619 L204.391767,40.3790476 L204.557204,40.3790476 L204.98734,43.991619 L208.229903,56.7847619 L211.17468,56.7847619 L216.369398,33.4190476 L212.134214,33.4190476 L210.082796,46.1127619 L209.718835,50.3550476 L209.586485,50.3550476 L209.222524,46.1790476 L206.211573,33.4190476 L203.299883,33.4190476 L200.18967,46.1127619 L199.825709,50.3550476 L199.693359,50.3550476 L199.362485,46.1790476 L197.112544,33.4190476 L192.860816,33.4190476 Z M152.279146,45.2179048 L150.757126,41.1413333 L150.591689,41.1413333 L151.121087,45.151619 L151.121087,56.6190476 L147.183689,56.6190476 L147.183689,33.2533333 L150.393165,33.2533333 L157.043728,44.919619 L158.466485,48.9299048 L158.66501,48.9299048 L158.135612,44.9859048 L158.135612,33.4190476 L162.07301,33.4190476 L162.07301,56.7847619 L158.863534,56.7847619 L152.279146,45.2179048 Z M165.050874,33.4190476 L176.631456,33.4190476 L176.631456,37.263619 L169.219883,37.263619 L169.219883,42.9641905 L175.936621,42.9641905 L175.936621,46.8087619 L169.219883,46.8087619 L169.219883,52.7744762 L176.763806,52.7744762 L176.763806,56.6190476 L165.050874,56.6190476 L165.050874,33.4190476 Z M216.60101,45.0190476 C216.60101,41.0860756 217.27378,38.0922008 218.61934,36.0373333 C219.9649,33.9824659 222.016297,32.9550476 224.773592,32.9550476 C226.207386,32.9550476 227.442636,33.2367591 228.479379,33.8001905 C229.516122,34.3636219 230.365356,35.17009 231.027107,36.219619 C231.688858,37.2691481 232.179649,38.5396116 232.499495,40.0310476 C232.819341,41.5224836 232.979262,43.1851337 232.979262,45.0190476 C232.979262,48.9520197 232.289949,51.9458945 230.911301,54.0007619 C229.532653,56.0556293 227.486771,57.0830476 224.773592,57.0830476 C223.31774,57.0830476 222.076976,56.8013362 221.051262,56.2379048 C220.025548,55.6744734 219.181829,54.8680052 218.520078,53.8184762 C217.858327,52.7689471 217.37305,51.4984836 217.064233,50.0070476 C216.755416,48.5156116 216.60101,46.8529616 216.60101,45.0190476 Z M220.968544,45.0190476 C220.968544,46.1901011 221.034718,47.2782807 221.167068,48.283619 C221.299418,49.2889574 221.519998,50.1561868 221.828816,50.8853333 C222.137633,51.6144798 222.529163,52.1889503 223.003417,52.6087619 C223.477672,53.0285735 224.067725,53.2384762 224.773592,53.2384762 C226.052977,53.2384762 227.012502,52.5866732 227.652194,51.2830476 C228.291887,49.9794221 228.611728,47.8914429 228.611728,45.0190476 C228.611728,43.8921848 228.545554,42.8261003 228.413204,41.8207619 C228.280854,40.8154235 228.065788,39.9426704 227.768,39.2024762 C227.470212,38.462282 227.078682,37.8767641 226.593398,37.4459048 C226.108114,37.0150455 225.501518,36.799619 224.773592,36.799619 C222.236881,36.799619 220.968544,39.5394012 220.968544,45.0190476 Z M235.427728,33.6510476 C236.332121,33.4521895 237.302674,33.3085719 238.339417,33.2201905 C239.376161,33.1318091 240.269511,33.087619 241.019495,33.087619 C241.968005,33.087619 242.894442,33.1815229 243.798835,33.3693333 C244.703228,33.5571438 245.502831,33.8996166 246.19767,34.3967619 C246.892508,34.8939072 247.454988,35.5678053 247.885126,36.4184762 C248.315264,37.2691471 248.53033,38.3462792 248.53033,39.6499048 C248.53033,41.5280094 248.182916,43.0580893 247.488078,44.2401905 C246.793239,45.4222916 245.839229,46.2342835 244.626019,46.6761905 L245.949515,47.7367619 L250.217786,56.6190476 L245.420117,56.6190476 L241.383456,47.471619 L239.596738,47.0407619 L239.596738,56.6190476 L235.427728,56.6190476 L235.427728,33.6510476 Z M239.596738,44.1904762 L241.019495,44.1904762 C242.056238,44.1904762 242.839298,43.8756222 243.368699,43.2459048 C243.8981,42.6161873 244.162796,41.6384828 244.162796,40.3127619 C244.162796,39.3184712 243.942216,38.5064793 243.501049,37.8767619 C243.059881,37.2470445 242.365053,36.9321905 241.416544,36.9321905 C241.06361,36.9321905 240.72171,36.943238 240.390835,36.9653333 C240.05996,36.9874287 239.795263,37.0316187 239.596738,37.0979048 L239.596738,44.1904762 Z M257.133049,46.6761905 L256.239689,46.6761905 L256.239689,56.6190476 L252.07068,56.6190476 L252.07068,33.4190476 L256.239689,33.4190476 L256.239689,43.7264762 L257.066874,43.3287619 L261.930718,33.4190476 L266.629126,33.4190476 L261.335146,43.1961905 L259.780039,44.4224762 L261.368233,45.6819048 L267.489398,56.6190476 L262.393942,56.6190476 L257.133049,46.6761905 Z" id="Network" fill="#59BF97"></path>
                    <path d="M44.9106019,33.4190476 L56.4911845,33.4190476 L56.4911845,37.263619 L49.0796117,37.263619 L49.0796117,42.9641905 L55.7963495,42.9641905 L55.7963495,46.8087619 L49.0796117,46.8087619 L49.0796117,52.7744762 L56.623534,52.7744762 L56.623534,56.6190476 L44.9106019,56.6190476 L44.9106019,33.4190476 Z M71.4466796,56.6190476 L59.1381748,56.6190476 L59.1381748,33.4190476 L63.3071845,33.4190476 L63.3071845,52.7744762 L71.4466796,52.7744762 L71.4466796,56.6190476 Z M73.1672233,33.4190476 C73.5642738,33.3527616 74.010949,33.3030478 74.5072621,33.2699048 C75.0035753,33.2367617 75.51091,33.2036192 76.0292816,33.1704762 C76.5476531,33.1373332 77.0494733,33.1152382 77.5347573,33.1041905 C78.0200413,33.0931428 78.4501729,33.087619 78.825165,33.087619 C80.6560092,33.087619 82.1835279,33.3693305 83.407767,33.9327619 C84.6320061,34.4961933 85.6135885,35.2916139 86.3525437,36.3190476 C87.0914988,37.3464813 87.6153771,38.5782785 87.9241942,40.0144762 C88.2330113,41.4506738 88.3874175,43.0525626 88.3874175,44.8201905 C88.3874175,46.4331509 88.2385258,47.9742784 87.9407379,49.443619 C87.64295,50.9129597 87.1190717,52.2055182 86.3690874,53.3213333 C85.619103,54.4371484 84.6044336,55.3264729 83.3250485,55.9893333 C82.0456635,56.6521938 80.4354272,56.983619 78.4942913,56.983619 C78.2075325,56.983619 77.821517,56.9725715 77.336233,56.9504762 C76.850949,56.9283808 76.3436143,56.9007621 75.8142136,56.867619 C75.2848129,56.834476 74.7774782,56.8013335 74.2921942,56.7681905 C73.8069102,56.7350475 73.4319237,56.6963812 73.1672233,56.6521905 L73.1672233,33.4190476 Z M79.255301,36.9321905 C78.9023672,36.9321905 78.5439241,36.9377142 78.1799612,36.9487619 C77.8159982,36.9598096 77.5347583,36.9874284 77.336233,37.031619 L77.336233,53.0064762 C77.4024081,53.0285715 77.5182128,53.0451428 77.6836505,53.0561905 C77.8490882,53.0672382 78.0255525,53.0782857 78.2130485,53.0893333 C78.4005446,53.100381 78.5770089,53.1114285 78.7424466,53.1224762 C78.9078843,53.1335239 79.023689,53.1390476 79.0898641,53.1390476 C80.0824904,53.1390476 80.8986376,52.9070499 81.5383301,52.4430476 C82.1780226,51.9790453 82.6798428,51.3603848 83.0438058,50.5870476 C83.4077688,49.8137104 83.6614362,48.924386 83.8048155,47.9190476 C83.9481949,46.9137093 84.0198835,45.8586722 84.0198835,44.7539048 C84.0198835,43.7375187 83.9592239,42.7542905 83.8379029,41.8041905 C83.7165819,40.8540905 83.4849726,40.0200036 83.143068,39.3019048 C82.8011633,38.5838059 82.3158866,38.0093355 81.6872233,37.5784762 C81.05856,37.1476169 80.2479273,36.9321905 79.255301,36.9321905 Z M90.8689709,33.4190476 L102.449553,33.4190476 L102.449553,37.263619 L95.0379806,37.263619 L95.0379806,42.9641905 L101.754718,42.9641905 L101.754718,46.8087619 L95.0379806,46.8087619 L95.0379806,52.7744762 L102.581903,52.7744762 L102.581903,56.6190476 L90.8689709,56.6190476 L90.8689709,33.4190476 Z M105.096544,33.6510476 C106.000937,33.4521895 106.97149,33.3085719 108.008233,33.2201905 C109.044976,33.1318091 109.938326,33.087619 110.688311,33.087619 C111.63682,33.087619 112.563258,33.1815229 113.46765,33.3693333 C114.372043,33.5571438 115.171647,33.8996166 115.866485,34.3967619 C116.561324,34.8939072 117.123804,35.5678053 117.553942,36.4184762 C117.98408,37.2691471 118.199146,38.3462792 118.199146,39.6499048 C118.199146,41.5280094 117.851732,43.0580893 117.156893,44.2401905 C116.462055,45.4222916 115.508045,46.2342835 114.294835,46.6761905 L115.61833,47.7367619 L119.886602,56.6190476 L115.088932,56.6190476 L111.052272,47.471619 L109.265553,47.0407619 L109.265553,56.6190476 L105.096544,56.6190476 L105.096544,33.6510476 Z M109.265553,44.1904762 L110.688311,44.1904762 C111.725054,44.1904762 112.508114,43.8756222 113.037515,43.2459048 C113.566915,42.6161873 113.831612,41.6384828 113.831612,40.3127619 C113.831612,39.3184712 113.611031,38.5064793 113.169864,37.8767619 C112.728697,37.2470445 112.033869,36.9321905 111.085359,36.9321905 C110.732425,36.9321905 110.390526,36.943238 110.05965,36.9653333 C109.728775,36.9874287 109.464079,37.0316187 109.265553,37.0979048 L109.265553,44.1904762 Z M129.845903,50.6533333 C129.845903,49.9462822 129.636352,49.344193 129.217243,48.8470476 C128.798134,48.3499023 128.274256,47.8803832 127.645592,47.4384762 C127.016929,46.9965692 126.33313,46.5436214 125.594175,46.079619 C124.85522,45.6156167 124.171421,45.0742888 123.542757,44.455619 C122.914094,43.8369493 122.390216,43.1078137 121.971107,42.2681905 C121.551998,41.4285672 121.342447,40.4011489 121.342447,39.1859048 C121.342447,38.059042 121.513396,37.1034325 121.855301,36.3190476 C122.197206,35.5346627 122.665939,34.8939072 123.261515,34.3967619 C123.85709,33.8996166 124.562947,33.5350488 125.379107,33.3030476 C126.195266,33.0710465 127.066558,32.9550476 127.99301,32.9550476 C129.117986,32.9550476 130.165743,33.0655227 131.136311,33.2864762 C132.106879,33.5074297 132.911997,33.8057124 133.551689,34.1813333 L132.261282,37.8601905 C131.886289,37.5950463 131.329324,37.3520011 130.590369,37.1310476 C129.851414,36.9100941 129.05181,36.799619 128.191534,36.799619 C127.331258,36.799619 126.669517,36.9763792 126.206291,37.3299048 C125.743066,37.6834303 125.511456,38.2026632 125.511456,38.887619 C125.511456,39.5062888 125.721008,40.0531405 126.140117,40.5281905 C126.559225,41.0032405 127.083104,41.4617121 127.711767,41.903619 C128.34043,42.345526 129.024229,42.8039976 129.763184,43.2790476 C130.50214,43.7540976 131.185939,44.306473 131.814602,44.9361905 C132.443265,45.5659079 132.967144,46.306091 133.386252,47.1567619 C133.805361,48.0074328 134.014913,49.0182799 134.014913,50.1893333 C134.014913,51.3603868 133.843963,52.3767576 133.502058,53.2384762 C133.160154,54.1001948 132.674877,54.8127591 132.046214,55.3761905 C131.41755,55.9396219 130.662063,56.3649509 129.779728,56.6521905 C128.897394,56.93943 127.915811,57.0830476 126.834951,57.0830476 C125.467333,57.0830476 124.270685,56.9504775 123.244971,56.6853333 C122.219257,56.4201892 121.430682,56.1219064 120.879223,55.7904762 L122.235806,52.0453333 C122.676973,52.3104775 123.283569,52.5756177 124.055612,52.8407619 C124.827654,53.1059061 125.654831,53.2384762 126.537165,53.2384762 C128.743001,53.2384762 129.845903,52.3767705 129.845903,50.6533333 Z" id="Elders" fill="#59BF6F"></path>
                    <path d="M16.5436893,45.4581098 C16.5436893,43.0739223 17.0089839,41.299253 17.9395871,40.1340486 C18.8701902,38.9688442 20.1676463,38.3862507 21.8319943,38.3862507 C23.6216157,38.3862507 24.9548637,38.9778072 25.8317782,40.1609378 C26.7086927,41.3440684 27.1471434,43.1097748 27.1471434,45.4581098 C27.1471434,47.8602235 26.6818488,49.6393743 25.7512457,50.7956156 C24.8206425,51.9518569 23.5142384,52.5299689 21.8319943,52.5299689 C18.30644,52.5299689 16.5436893,50.1727061 16.5436893,45.4581098 Z M19.8455244,45.4581098 C19.8455244,46.8025764 19.9976399,47.8422817 20.3018756,48.5772568 C20.6061112,49.3122319 21.1161457,49.6797139 21.8319943,49.6797139 C22.5120504,49.6797139 23.0176109,49.3615282 23.3486909,48.7251474 C23.6797708,48.0887665 23.8453083,46.9997649 23.8453083,45.4581098 C23.8453083,44.0777907 23.6931928,43.0291225 23.3889572,42.3120736 C23.0847215,41.5950248 22.5657391,41.2365057 21.8319943,41.2365057 C21.2056268,41.2365057 20.7179622,41.5546914 20.3689861,42.1910723 C20.0200099,42.8274531 19.8455244,43.9164548 19.8455244,45.4581098 Z M27.7645597,38.7358103 L29.2141459,38.7358103 L29.2141459,37.9829128 C29.2141459,36.2799217 29.5317989,35.0475125 30.1671145,34.2856481 C30.8024301,33.5237836 31.7106494,33.1428571 32.8917996,33.1428571 C34.0729497,33.1428571 35.0572268,33.3041907 35.8446602,33.6268627 L35.2540881,36.3426717 C34.9319562,36.2171881 34.6456211,36.1410028 34.3950741,36.1141135 C34.1445271,36.0872242 33.8850358,36.0737797 33.6165926,36.0737797 C33.0976024,36.0737797 32.7665274,36.2754467 32.6233577,36.6787867 C32.480188,37.0821267 32.4086042,37.7677944 32.4086042,38.7358103 L34.6903601,38.7358103 L34.6903601,41.5860653 L32.4086042,41.5860653 L32.4086042,52.1804093 L29.2141459,52.1804093 L29.2141459,41.5860653 L27.7645597,41.5860653 L27.7645597,38.7358103 Z" id="Of" fill="#73C9A7"></path>
                    <path d="M75.1507997,6.92777778 C75.1507997,7.62592942 75.0780664,8.31735769 74.9325976,9.00208333 C74.7871288,9.68680898 74.5557046,10.331247 74.2383181,10.9354167 C73.9209316,11.5395864 73.504368,12.0699051 72.9886149,12.5263889 C72.4728618,12.9828727 71.8579347,13.3319432 71.143815,13.5736111 L71.143815,13.8152778 C71.7785881,13.9763897 72.380291,14.2180539 72.9489418,14.5402778 C73.5175927,14.8625016 74.0135016,15.2988398 74.4366837,15.8493056 C74.8598657,16.3997713 75.1970838,17.0710609 75.4483481,17.8631944 C75.6996124,18.655328 75.8252427,19.5884206 75.8252427,20.6625 C75.8252427,22.1125072 75.5805943,23.3678188 75.0912901,24.4284722 C74.6019859,25.4891257 73.9407739,26.3550892 73.1076343,27.0263889 C72.2744947,27.6976885 71.3025131,28.1944428 70.1916603,28.5166667 C69.0808075,28.8388905 67.9038501,29 66.660753,29 L65.2325208,29 C64.6506455,29 64.0224941,28.9798613 63.3480478,28.9395833 C62.6736014,28.8993054 61.9793288,28.8388893 61.2652092,28.7583333 C60.5510895,28.6777774 59.8898775,28.5569452 59.2815534,28.3958333 L59.2815534,0.604166667 C60.1543663,0.44305475 61.2321418,0.302083938 62.5149123,0.18125 C63.7976828,0.0604160625 65.073822,0 66.343368,0 C67.5071186,0 68.6245668,0.0939805417 69.6957463,0.281944444 C70.7669258,0.469908347 71.7058468,0.818978931 72.5125375,1.32916667 C73.3192283,1.8393544 73.9606039,2.54420847 74.4366837,3.44375 C74.9127634,4.34329153 75.1507997,5.50462251 75.1507997,6.92777778 Z M66.7797723,24.6097222 C67.8906251,24.6097222 68.8030976,24.2472258 69.5172173,23.5222222 C70.231337,22.7972186 70.5883914,21.7365811 70.5883914,20.3402778 C70.5883914,19.4541622 70.4693733,18.7493082 70.2313334,18.2256944 C69.9932935,17.7020807 69.6759117,17.299307 69.2791786,17.0173611 C68.8824455,16.7354153 68.4262092,16.5541671 67.9104561,16.4736111 C67.394703,16.3930552 66.8591213,16.3527778 66.3036949,16.3527778 L64.280366,16.3527778 L64.280366,24.3680556 C64.491957,24.4486115 64.8556236,24.5090276 65.3713767,24.5493056 C65.8871298,24.5895835 66.3565903,24.6097222 66.7797723,24.6097222 Z M65.4308864,12.3652778 C65.721824,12.3652778 66.0590421,12.3451391 66.4425508,12.3048611 C66.8260595,12.2645831 67.1368292,12.2175929 67.374869,12.1638889 C68.1418864,11.868517 68.7964863,11.3851885 69.3386883,10.7138889 C69.8808902,10.0425892 70.1519871,9.16991278 70.1519871,8.09583333 C70.1519871,7.39768169 70.0594175,6.80694686 69.8742753,6.32361111 C69.6891332,5.84027536 69.4378726,5.4576403 69.1204861,5.17569444 C68.8030996,4.89374859 68.4262088,4.69236172 67.9898023,4.57152778 C67.5533959,4.45069384 67.0839354,4.39027778 66.5814067,4.39027778 C65.4970028,4.39027778 64.7299969,4.44398094 64.280366,4.55138889 L64.280366,12.3652778 L65.4308864,12.3652778 Z M78.5825243,0.694366197 C79.6784515,0.449294549 80.8545509,0.272301014 82.1108577,0.163380282 C83.3671645,0.0544595493 84.4497106,0 85.3585283,0 C86.5079154,0 87.6305557,0.115726542 88.7264829,0.347183099 C89.8224101,0.578639655 90.7913557,1.00070116 91.6333485,1.61338028 C92.4753414,2.2260594 93.1569445,3.05656753 93.6781781,4.10492958 C94.1994118,5.15329163 94.4600248,6.48074314 94.4600248,8.08732394 C94.4600248,10.4018895 94.0390346,12.2875514 93.1970418,13.7443662 C92.3550489,15.201181 91.1989967,16.2018752 89.7288504,16.7464789 L91.3326383,18.0535211 L96.5048544,29 L90.6911231,29 L85.7995699,17.7267606 L83.6344562,17.1957746 L83.6344562,29 L78.5825243,29 L78.5825243,0.694366197 Z M83.6344562,13.6830986 L85.3585283,13.6830986 C86.6148351,13.6830986 87.5637335,13.2950743 88.2052518,12.5190141 C88.8467702,11.7429539 89.1675246,10.5380363 89.1675246,8.90422535 C89.1675246,7.67886711 88.9002293,6.67817289 88.3656306,5.90211268 C87.831032,5.12605246 86.9890517,4.73802817 85.8396646,4.73802817 C85.4119857,4.73802817 84.997678,4.75164306 84.596729,4.77887324 C84.19578,4.80610342 83.8750256,4.86056297 83.6344562,4.94225352 L83.6344562,13.6830986 Z M96.5048544,14.5 C96.5048544,9.77287014 97.2976809,6.1744629 98.8833579,3.70467033 C100.469035,1.23487776 102.886506,0 106.135844,0 C107.8255,0 109.281181,0.338595515 110.502932,1.0157967 C111.724683,1.69299789 112.725464,2.66231054 113.505305,3.92376374 C114.285147,5.18521693 114.86352,6.71221631 115.240443,8.50480769 C115.617366,10.2973991 115.805825,12.2957765 115.805825,14.5 C115.805825,19.2271299 114.993503,22.8255371 113.368834,25.2953297 C111.744165,27.7651222 109.333192,29 106.135844,29 C104.420193,29 102.958013,28.6614045 101.74926,27.9842033 C100.540506,27.3070021 99.5462234,26.3376895 98.7663823,25.0762363 C97.9865412,23.8147831 97.4146663,22.2877837 97.0507404,20.4951923 C96.6868146,18.7026009 96.5048544,16.7042235 96.5048544,14.5 Z M101.65178,14.5 C101.65178,15.9075162 101.729763,17.2154244 101.885731,18.4237637 C102.041699,19.6321031 102.301642,20.6744462 102.665568,21.5508242 C103.029494,22.4272022 103.490893,23.1176715 104.049779,23.6222527 C104.608665,24.126834 105.304013,24.3791209 106.135844,24.3791209 C107.643537,24.3791209 108.774289,23.5957038 109.528136,22.0288462 C110.281982,20.4619885 110.6589,17.9523982 110.6589,14.5 C110.6589,13.1455976 110.580917,11.864246 110.424949,10.6559066 C110.26898,9.44756722 110.015536,8.39858503 109.664607,7.50892857 C109.313679,6.61927211 108.85228,5.91552457 108.280396,5.39766484 C107.708513,4.8798051 106.993669,4.62087912 106.135844,4.62087912 C103.146453,4.62087912 101.65178,7.91388648 101.65178,14.5 Z M136.485437,4.80571429 L129.989571,4.80571429 L129.989571,29 L125.058973,29 L125.058973,4.80571429 L118.563107,4.80571429 L118.563107,0 L136.485437,0 L136.485437,4.80571429 Z M150.68886,16.7371429 L142.961625,16.7371429 L142.961625,29 L137.864078,29 L137.864078,0 L142.961625,0 L142.961625,11.9314286 L150.68886,11.9314286 L150.68886,0 L155.786408,0 L155.786408,29 L150.68886,29 L150.68886,16.7371429 Z M159.92233,0 L174.916022,0 L174.916022,4.80571429 L165.320059,4.80571429 L165.320059,11.9314286 L174.016401,11.9314286 L174.016401,16.7371429 L165.320059,16.7371429 L165.320059,24.1942857 L175.087379,24.1942857 L175.087379,29 L159.92233,29 L159.92233,0 Z M177.84466,0.694366197 C178.940587,0.449294549 180.116687,0.272301014 181.372994,0.163380282 C182.6293,0.0544595493 183.711846,0 184.620664,0 C185.770051,0 186.892692,0.115726542 187.988619,0.347183099 C189.084546,0.578639655 190.053492,1.00070116 190.895484,1.61338028 C191.737477,2.2260594 192.41908,3.05656753 192.940314,4.10492958 C193.461548,5.15329163 193.722161,6.48074314 193.722161,8.08732394 C193.722161,10.4018895 193.301171,12.2875514 192.459178,13.7443662 C191.617185,15.201181 190.461133,16.2018752 188.990986,16.7464789 L190.594774,18.0535211 L195.76699,29 L189.953259,29 L185.061706,17.7267606 L182.896592,17.1957746 L182.896592,29 L177.84466,29 L177.84466,0.694366197 Z M182.896592,13.6830986 L184.620664,13.6830986 C185.876971,13.6830986 186.825869,13.2950743 187.467388,12.5190141 C188.108906,11.7429539 188.429661,10.5380363 188.429661,8.90422535 C188.429661,7.67886711 188.162365,6.67817289 187.627767,5.90211268 C187.093168,5.12605246 186.251188,4.73802817 185.101801,4.73802817 C184.674122,4.73802817 184.259814,4.75164306 183.858865,4.77887324 C183.457916,4.80610342 183.137162,4.86056297 182.896592,4.94225352 L182.896592,13.6830986 Z M212.727695,16.7371429 L205.00046,16.7371429 L205.00046,29 L199.902913,29 L199.902913,0 L205.00046,0 L205.00046,11.9314286 L212.727695,11.9314286 L212.727695,0 L217.825243,0 L217.825243,29 L212.727695,29 L212.727695,16.7371429 Z M220.582524,14.5 C220.582524,9.77287014 221.375351,6.1744629 222.961028,3.70467033 C224.546705,1.23487776 226.964176,0 230.213514,0 C231.90317,0 233.358851,0.338595515 234.580602,1.0157967 C235.802353,1.69299789 236.803134,2.66231054 237.582975,3.92376374 C238.362816,5.18521693 238.94119,6.71221631 239.318113,8.50480769 C239.695036,10.2973991 239.883495,12.2957765 239.883495,14.5 C239.883495,19.2271299 239.071173,22.8255371 237.446504,25.2953297 C235.821835,27.7651222 233.410862,29 230.213514,29 C228.497863,29 227.035683,28.6614045 225.826929,27.9842033 C224.618176,27.3070021 223.623893,26.3376895 222.844052,25.0762363 C222.064211,23.8147831 221.492336,22.2877837 221.12841,20.4951923 C220.764484,18.7026009 220.582524,16.7042235 220.582524,14.5 Z M225.72945,14.5 C225.72945,15.9075162 225.807433,17.2154244 225.963401,18.4237637 C226.119369,19.6321031 226.379312,20.6744462 226.743238,21.5508242 C227.107164,22.4272022 227.568563,23.1176715 228.127449,23.6222527 C228.686335,24.126834 229.381683,24.3791209 230.213514,24.3791209 C231.721207,24.3791209 232.851959,23.5957038 233.605806,22.0288462 C234.359652,20.4619885 234.73657,17.9523982 234.73657,14.5 C234.73657,13.1455976 234.658587,11.864246 234.502618,10.6559066 C234.34665,9.44756722 234.093206,8.39858503 233.742277,7.50892857 C233.391349,6.61927211 232.92995,5.91552457 232.358066,5.39766484 C231.786183,4.8798051 231.071339,4.62087912 230.213514,4.62087912 C227.224123,4.62087912 225.72945,7.91388648 225.72945,14.5 Z M241.262136,14.5 C241.262136,9.77287014 242.054962,6.1744629 243.640639,3.70467033 C245.226316,1.23487776 247.643787,0 250.893125,0 C252.582781,0 254.038463,0.338595515 255.260214,1.0157967 C256.481965,1.69299789 257.482746,2.66231054 258.262587,3.92376374 C259.042428,5.18521693 259.620802,6.71221631 259.997725,8.50480769 C260.374648,10.2973991 260.563107,12.2957765 260.563107,14.5 C260.563107,19.2271299 259.750784,22.8255371 258.126116,25.2953297 C256.501447,27.7651222 254.090474,29 250.893125,29 C249.177475,29 247.715295,28.6614045 246.506541,27.9842033 C245.297787,27.3070021 244.303505,26.3376895 243.523664,25.0762363 C242.743823,23.8147831 242.171948,22.2877837 241.808022,20.4951923 C241.444096,18.7026009 241.262136,16.7042235 241.262136,14.5 Z M246.409061,14.5 C246.409061,15.9075162 246.487044,17.2154244 246.643013,18.4237637 C246.798981,19.6321031 247.058924,20.6744462 247.42285,21.5508242 C247.786776,22.4272022 248.248175,23.1176715 248.807061,23.6222527 C249.365947,24.126834 250.061295,24.3791209 250.893125,24.3791209 C252.400818,24.3791209 253.531571,23.5957038 254.285417,22.0288462 C255.039264,20.4619885 255.416181,17.9523982 255.416181,14.5 C255.416181,13.1455976 255.338198,11.864246 255.18223,10.6559066 C255.026262,9.44756722 254.772817,8.39858503 254.421889,7.50892857 C254.07096,6.61927211 253.609561,5.91552457 253.037678,5.39766484 C252.465794,4.8798051 251.750951,4.62087912 250.893125,4.62087912 C247.903735,4.62087912 246.409061,7.91388648 246.409061,14.5 Z M266.07767,0.40221914 C266.545211,0.32177491 267.071187,0.261442642 267.655614,0.221220527 C268.240041,0.180998412 268.837446,0.1407769 269.447847,0.100554785 C270.058248,0.0603326699 270.64916,0.0335183287 271.220599,0.020110957 C271.792039,0.0067035853 272.298534,0 272.740101,0 C274.895987,0 276.694695,0.34188285 278.136281,1.02565881 C279.577867,1.70943476 280.733716,2.67475105 281.603862,3.92163662 C282.474009,5.16852218 283.090894,6.66342171 283.454538,8.40638003 C283.818181,10.1493383 284,12.0933781 284,14.2385576 C284,16.1960338 283.824675,18.0663341 283.474019,19.8495146 C283.123363,21.632695 282.506477,23.201334 281.623343,24.5554785 C280.740209,25.909623 279.545399,26.9889003 278.038877,27.7933426 C276.532355,28.5977849 274.636243,29 272.350485,29 C272.012817,29 271.558269,28.9865928 270.98683,28.9597781 C270.41539,28.9329633 269.817985,28.8994454 269.194597,28.8592233 C268.571208,28.8190012 267.973803,28.7787797 267.402364,28.7385576 C266.830924,28.6983354 266.389364,28.6514103 266.07767,28.5977809 L266.07767,0.40221914 Z M273.246602,4.66574202 C272.83101,4.66574202 272.40893,4.67244561 271.98035,4.68585298 C271.551771,4.69926035 271.220601,4.73277828 270.98683,4.78640777 L270.98683,24.1733703 C271.064753,24.2001851 271.201118,24.2202958 271.395927,24.2337032 C271.590735,24.2471106 271.798529,24.2605177 272.019312,24.2739251 C272.240095,24.2873325 272.447888,24.3007396 272.642697,24.314147 C272.837506,24.3275544 272.97387,24.334258 273.051794,24.334258 C274.220647,24.334258 275.18169,24.0527074 275.934951,23.4895978 C276.688213,22.9264882 277.279124,22.1756866 277.707704,21.2371706 C278.136283,20.2986546 278.434986,19.2193773 278.60382,17.9993065 C278.772655,16.7792357 278.85707,15.4988509 278.85707,14.1581137 C278.85707,12.9246355 278.785642,11.7313974 278.642782,10.5783634 C278.499922,9.42532942 278.227194,8.41308804 277.824588,7.54160888 C277.421983,6.67012972 276.850552,5.97295684 276.110279,5.45006935 C275.370005,4.92718185 274.415455,4.66574202 273.246602,4.66574202 Z" id="Brotherhood" fill="#59BF6F"></path>
                    <path d="M15.4187184,6.88266667 L9.92621359,6.88266667 L9.92621359,26.2380952 L5.75720388,26.2380952 L5.75720388,6.88266667 L0.264699029,6.88266667 L0.264699029,3.03809524 L15.4187184,3.03809524 L15.4187184,6.88266667 Z M27.6610485,16.4278095 L21.3413592,16.4278095 L21.3413592,26.2380952 L17.1723495,26.2380952 L17.1723495,3.03809524 L21.3413592,3.03809524 L21.3413592,12.5832381 L27.6610485,12.5832381 L27.6610485,3.03809524 L31.8300583,3.03809524 L31.8300583,26.2380952 L27.6610485,26.2380952 L27.6610485,16.4278095 Z M34.8079223,3.03809524 L46.3885049,3.03809524 L46.3885049,6.88266667 L38.976932,6.88266667 L38.976932,12.5832381 L45.6936699,12.5832381 L45.6936699,16.4278095 L38.976932,16.4278095 L38.976932,22.3935238 L46.5208544,22.3935238 L46.5208544,26.2380952 L34.8079223,26.2380952 L34.8079223,3.03809524 Z" id="The" fill="#59BF97"></path>
                </g>
            </g>
        </g>
    </g>
</svg>