<svg xmlns="http://www.w3.org/2000/svg" xmlns:xlink="http://www.w3.org/1999/xlink" viewBox="0 0 1200 300"><defs><style>.cls-1{isolation:isolate;}.cls-2{fill:#a39671;mix-blend-mode:overlay;}.cls-15,.cls-16,.cls-17,.cls-18,.cls-3,.cls-4,.cls-5,.cls-6,.cls-7,.cls-8{opacity:0.09;}.cls-14,.cls-15,.cls-16,.cls-17,.cls-18,.cls-3,.cls-4,.cls-5,.cls-6,.cls-7,.cls-8{mix-blend-mode:screen;}.cls-3{fill:url(#_ÂÁ_Ï_ÌÌ_È_ËÂÌÚ_130);}.cls-4{fill:url(#_ÂÁ_Ï_ÌÌ_È_ËÂÌÚ_130-2);}.cls-5{fill:url(#_ÂÁ_Ï_ÌÌ_È_ËÂÌÚ_130-3);}.cls-6{fill:url(#_ÂÁ_Ï_ÌÌ_È_ËÂÌÚ_131);}.cls-7{fill:url(#_ÂÁ_Ï_ÌÌ_È_ËÂÌÚ_131-2);}.cls-8{fill:url(#_ÂÁ_Ï_ÌÌ_È_ËÂÌÚ_131-3);}.cls-10,.cls-11,.cls-12,.cls-13,.cls-9{opacity:0.35;mix-blend-mode:color-burn;}.cls-9{fill:url(#_ÂÁ_Ï_ÌÌ_È_ËÂÌÚ_42);}.cls-10{fill:url(#_ÂÁ_Ï_ÌÌ_È_ËÂÌÚ_37);}.cls-11{fill:url(#_ÂÁ_Ï_ÌÌ_È_ËÂÌÚ_37-2);}.cls-12{fill:url(#_ÂÁ_Ï_ÌÌ_È_ËÂÌÚ_37-3);}.cls-13{fill:url(#_ÂÁ_Ï_ÌÌ_È_ËÂÌÚ_37-4);}.cls-14{opacity:0.4;fill:url(#_ÂÁ_Ï_ÌÌ_È_ËÂÌÚ_371);}.cls-15{fill:url(#_ÂÁ_Ï_ÌÌ_È_ËÂÌÚ_130-4);}.cls-16{fill:url(#_ÂÁ_Ï_ÌÌ_È_ËÂÌÚ_130-5);}.cls-17{fill:url(#_ÂÁ_Ï_ÌÌ_È_ËÂÌÚ_130-6);}.cls-18{fill:url(#_ÂÁ_Ï_ÌÌ_È_ËÂÌÚ_130-7);}</style><linearGradient id="_ÂÁ_Ï_ÌÌ_È_ËÂÌÚ_130" x1="299.13" y1="396.98" x2="1316.02" y2="-272.52" gradientUnits="userSpaceOnUse"><stop offset="0" stop-color="#fff"/><stop offset="0.02" stop-color="#cbcbcb"/><stop offset="0.04" stop-color="#969696"/><stop offset="0.06" stop-color="#686868"/><stop offset="0.08" stop-color="#434343"/><stop offset="0.1" stop-color="#252525"/><stop offset="0.12" stop-color="#111"/><stop offset="0.14" stop-color="#040404"/><stop offset="0.16"/><stop offset="1"/></linearGradient><linearGradient id="_ÂÁ_Ï_ÌÌ_È_ËÂÌÚ_130-2" x1="286.22" y1="430.94" x2="1259.22" y2="-209.66" xlink:href="#_ÂÁ_Ï_ÌÌ_È_ËÂÌÚ_130"/><linearGradient id="_ÂÁ_Ï_ÌÌ_È_ËÂÌÚ_130-3" x1="370.59" y1="438.06" x2="1186.44" y2="-295.65" xlink:href="#_ÂÁ_Ï_ÌÌ_È_ËÂÌÚ_130"/><linearGradient id="_ÂÁ_Ï_ÌÌ_È_ËÂÌÚ_131" x1="-23.44" y1="487.94" x2="947.31" y2="-151.18" gradientUnits="userSpaceOnUse"><stop offset="0"/><stop offset="0.84"/><stop offset="0.86" stop-color="#040404"/><stop offset="0.88" stop-color="#111"/><stop offset="0.9" stop-color="#252525"/><stop offset="0.92" stop-color="#434343"/><stop offset="0.94" stop-color="#686868"/><stop offset="0.96" stop-color="#969696"/><stop offset="0.98" stop-color="#cbcbcb"/><stop offset="1" stop-color="#fff"/></linearGradient><linearGradient id="_ÂÁ_Ï_ÌÌ_È_ËÂÌÚ_131-2" x1="-62.93" y1="527.46" x2="925.94" y2="-123.59" xlink:href="#_ÂÁ_Ï_ÌÌ_È_ËÂÌÚ_131"/><linearGradient id="_ÂÁ_Ï_ÌÌ_È_ËÂÌÚ_131-3" x1="-97.77" y1="561.02" x2="911.31" y2="-103.33" xlink:href="#_ÂÁ_Ï_ÌÌ_È_ËÂÌÚ_131"/><radialGradient id="_ÂÁ_Ï_ÌÌ_È_ËÂÌÚ_42" cx="1671.85" cy="-1107.01" r="491.07" gradientTransform="matrix(0.05, -0.5, 1.33, 0.02, 1988.1, 1004.87)" gradientUnits="userSpaceOnUse"><stop offset="0.78" stop-color="#fff"/><stop offset="0.83" stop-color="#fcfcfc"/><stop offset="0.87" stop-color="#f3f3f3"/><stop offset="0.91" stop-color="#e3e3e3"/><stop offset="0.94" stop-color="#cdcdcd"/><stop offset="0.96" stop-color="#b1b1b1"/><stop offset="0.99" stop-color="#8e8e8e"/><stop offset="1" stop-color="gray"/></radialGradient><radialGradient id="_ÂÁ_Ï_ÌÌ_È_ËÂÌÚ_37" cx="308.73" cy="-107.14" r="752.79" gradientTransform="matrix(1.33, 0.02, -0.05, 0.5, 44.33, 24.04)" gradientUnits="userSpaceOnUse"><stop offset="0.78" stop-color="#fff"/><stop offset="0.83" stop-color="#fcfcfc"/><stop offset="0.87" stop-color="#f2f2f2"/><stop offset="0.9" stop-color="#e1e1e1"/><stop offset="0.93" stop-color="#cacaca"/><stop offset="0.97" stop-color="#acacac"/><stop offset="0.99" stop-color="#878787"/><stop offset="1" stop-color="gray"/></radialGradient><radialGradient id="_ÂÁ_Ï_ÌÌ_È_ËÂÌÚ_37-2" cx="199.44" cy="-100" r="752.79" gradientTransform="translate(58 32.5) scale(1.33 0.5)" xlink:href="#_ÂÁ_Ï_ÌÌ_È_ËÂÌÚ_37"/><radialGradient id="_ÂÁ_Ï_ÌÌ_È_ËÂÌÚ_37-3" cx="255.4" cy="-1128.99" r="752.79" gradientTransform="translate(1063.12 -234) rotate(180) scale(1.33 0.5)" xlink:href="#_ÂÁ_Ï_ÌÌ_È_ËÂÌÚ_37"/><radialGradient id="_ÂÁ_Ï_ÌÌ_È_ËÂÌÚ_37-4" cx="96.44" cy="-1084" r="752.79" gradientTransform="translate(1063.12 -234) rotate(180) scale(1.33 0.5)" xlink:href="#_ÂÁ_Ï_ÌÌ_È_ËÂÌÚ_37"/><radialGradient id="_ÂÁ_Ï_ÌÌ_È_ËÂÌÚ_371" cx="375.04" cy="234.73" r="409.36" gradientTransform="translate(61.79 17.61) scale(1.45 0.52)" gradientUnits="userSpaceOnUse"><stop offset="0" stop-color="#fff"/><stop offset="0.07" stop-color="#f9f9f9"/><stop offset="0.18" stop-color="#e8e8e8"/><stop offset="0.29" stop-color="#cbcbcb"/><stop offset="0.42" stop-color="#a4a4a4"/><stop offset="0.56" stop-color="#717171"/><stop offset="0.7" stop-color="#343434"/><stop offset="0.81"/></radialGradient><linearGradient id="_ÂÁ_Ï_ÌÌ_È_ËÂÌÚ_130-4" x1="789.13" y1="-1195.34" x2="1846.47" y2="-1891.47" gradientTransform="translate(1929.87 1245.02) rotate(-87.46)" xlink:href="#_ÂÁ_Ï_ÌÌ_È_ËÂÌÚ_130"/><linearGradient id="_ÂÁ_Ï_ÌÌ_È_ËÂÌÚ_130-5" x1="910.92" y1="-1141.31" x2="1803.42" y2="-1728.91" gradientTransform="matrix(0.24, -0.97, 0.97, 0.24, 1571.18, 1486.68)" xlink:href="#_ÂÁ_Ï_ÌÌ_È_ËÂÌÚ_130"/><linearGradient id="_ÂÁ_Ï_ÌÌ_È_ËÂÌÚ_130-6" x1="1879.49" y1="-1688.42" x2="2752.24" y2="-2263.02" gradientTransform="matrix(-0.24, 0.97, -0.97, -0.24, -658.99, -2235.74)" xlink:href="#_ÂÁ_Ï_ÌÌ_È_ËÂÌÚ_130"/><linearGradient id="_ÂÁ_Ï_ÌÌ_È_ËÂÌÚ_130-7" x1="1451.52" y1="-1742.22" x2="2732.81" y2="-2585.79" gradientTransform="translate(-1835.88 -994.65) rotate(73)" xlink:href="#_ÂÁ_Ï_ÌÌ_È_ËÂÌÚ_130"/></defs><title>Artboard 2</title><g class="cls-1"><g id="_ÎÓÈ_1" data-name="—ÎÓÈ_1"><rect class="cls-2" width="1200" height="300"/><path class="cls-3" d="M386.67,300H1200V0H148.53c-22.85,26.71-35.19,55.19-35.19,84.75C113.33,171.63,219.9,249.17,386.67,300Z"/><path class="cls-4" d="M215.12,300H1200V0H228C149.68,44,104,96.87,104,153.75,104,207.43,144.69,257.55,215.12,300Z"/><path class="cls-5" d="M296.69,300H1200V0H182.51c-44.38,35.61-69.18,75.35-69.18,117.25C113.33,187.26,182.54,251.21,296.69,300Z"/><path class="cls-6" d="M1030.49,0H0V300H972.7c93.3-46.41,148.63-104.15,148.63-166.75C1121.33,85,1088.39,39.54,1030.49,0Z"/><path class="cls-7" d="M954.29,0H0V300H1020.77c55.66-39,87.23-83.47,87.23-130.75C1108,105.53,1050.66,46.82,954.29,0Z"/><path class="cls-8" d="M870.52,0H0V300H1053.06c31.19-30.68,48.28-64,48.28-98.75C1101.33,122,1012.67,50.53,870.52,0Z"/><path class="cls-9" d="M1200,49.7c-20.74-17.76-46.92-34.43-77.75-49.7H77.3C46.69,15.16,20.66,31.7,0,49.32V246.85C22.42,266,51.14,283.8,85.19,300H1114.36c34.27-16.3,63.16-34.27,85.64-53.53Z"/><path class="cls-10" d="M1200,231.28V0H0V300H974.55C1058.38,281.25,1134.3,258.06,1200,231.28Z"/><path class="cls-11" d="M1200,166.27V0H0V300H863.24C1003.07,266.53,1119,220.48,1200,166.27Z"/><path class="cls-12" d="M0,69.27V300H1200V0H241.84C151.87,18.44,70.42,41.87,0,69.27Z"/><path class="cls-13" d="M0,170.45V300H1200V0H357.46C197.46,42.24,72.29,101.49,0,170.45Z"/><path class="cls-14" d="M157.37,0C66.82,37.68,12,86.89,12,140.72c0,63.19,75.52,120,195.72,159.28h796.57C1124.48,260.71,1200,203.9,1200,140.72c0-53.83-54.82-103-145.37-140.72Z"/><path class="cls-15" d="M1200,150.24V0H0V235.29c127.47,30.18,277,48.7,438.37,51.39C748.38,291.83,1028.58,237.31,1200,150.24Z"/><path class="cls-16" d="M1200,144.7V0H0V200.78c89,23.64,191.17,41.55,303.51,51.94C643.83,284.17,986.66,238.19,1200,144.7Z"/><path class="cls-17" d="M0,194.4V300H1200V78.21c-68.56-14.36-143.32-25.57-223.26-33C589.67,9.48,199.34,73.87,0,194.4Z"/><path class="cls-18" d="M534.65,19.69C294.1,47.26,107,109.32,0,187V300H1200V40.93C1001,3.34,764.57-6.66,534.65,19.69Z"/></g></g></svg>